<svg xmlns="http://www.w3.org/2000/svg" viewBox="0 0 100 100" width="100" height="100">
  <!-- Gradient Definitions -->
  <defs>
    <!-- Sun gradient -->
    <radialGradient id="sunGradient" cx="50%" cy="50%">
      <stop offset="0%" style="stop-color:#FFD700;stop-opacity:1" />
      <stop offset="100%" style="stop-color:#FFA500;stop-opacity:1" />
    </radialGradient>
    
    <!-- Cloud gradient -->
    <linearGradient id="cloudGradient" x1="0%" y1="0%" x2="0%" y2="100%">
      <stop offset="0%" style="stop-color:#FFFFFF;stop-opacity:1" />
      <stop offset="100%" style="stop-color:#E0E7FF;stop-opacity:1" />
    </linearGradient>
    
    <!-- Glow effect -->
    <filter id="glow">
      <feGaussianBlur stdDeviation="2" result="coloredBlur"/>
      <feMerge>
        <feMergeNode in="coloredBlur"/>
        <feMergeNode in="SourceGraphic"/>
      </feMerge>
    </filter>
  </defs>
  
  <!-- Background circle -->
  <circle cx="50" cy="50" r="48" fill="#60A5FA" stroke="#3B82F6" stroke-width="2"/>
  
  <!-- Sun -->
  <circle cx="50" cy="35" r="18" fill="url(#sunGradient)" filter="url(#glow)"/>
  
  <!-- Sun rays -->
  <g stroke="#FFD700" stroke-width="3" stroke-linecap="round" opacity="0.8">
    <line x1="50" y1="10" x2="50" y2="5"/>
    <line x1="70" y1="16" x2="74" y2="12"/>
    <line x1="78" y1="28" x2="83" y2="26"/>
    <line x1="76" y1="42" x2="81" y2="42"/>
    <line x1="30" y1="16" x2="26" y2="12"/>
    <line x1="22" y1="28" x2="17" y2="26"/>
    <line x1="24" y1="42" x2="19" y2="42"/>
  </g>
  
  <!-- Cloud -->
  <g>
    <!-- Main cloud body -->
    <ellipse cx="35" cy="60" rx="15" ry="11" fill="url(#cloudGradient)" stroke="#D1D5DB" stroke-width="1"/>
    <ellipse cx="50" cy="57" rx="18" ry="13" fill="url(#cloudGradient)" stroke="#D1D5DB" stroke-width="1"/>
    <ellipse cx="65" cy="60" rx="15" ry="11" fill="url(#cloudGradient)" stroke="#D1D5DB" stroke-width="1"/>
    <rect x="35" y="60" width="30" height="8" fill="url(#cloudGradient)"/>
  </g>
  
  <!-- Rain drops -->
  <g stroke="#3B82F6" stroke-width="2" stroke-linecap="round" opacity="0.7">
    <line x1="38" y1="70" x2="36" y2="78"/>
    <line x1="48" y1="72" x2="46" y2="80"/>
    <line x1="58" y1="70" x2="56" y2="78"/>
  </g>
</svg>
